HIERARCHY
ROOT Hips
{
	OFFSET -0.179506 -22.333345 2.821913
	CHANNELS 6 Xposition Yposition Zposition Zrotation Yrotation Xrotation 
	JOINT LeftUpLeg
	{
		OFFSET 6.951974 -9.140623 -0.681533
		CHANNELS 3 Zrotation Yrotation Xrotation
		JOINT LeftLeg
		{
			OFFSET 3.427654 -37.519855 -0.449580
			CHANNELS 3 Zrotation Yrotation Xrotation
			JOINT LeftFoot
			{
				OFFSET -1.359570 -39.796059 -4.369333
				CHANNELS 3 Zrotation Yrotation Xrotation
				JOINT LeftToe
				{
					OFFSET 2.635814 -5.579078 11.928840
					CHANNELS 3 Zrotation Yrotation Xrotation
					End Site
					{
						OFFSET 0.000000 0.000000 0.000000
					}
				}
			}
		}
	}
	JOINT RightUpLeg
	{
		OFFSET -6.767048 -9.052170 -0.431982
		CHANNELS 3 Zrotation Yrotation Xrotation
		JOINT RightLeg
		{
			OFFSET -3.829005 -38.256897 -0.885003
			CHANNELS 3 Zrotation Yrotation Xrotation
			JOINT RightFoot
			{
				OFFSET 1.577377 -39.841461 -4.231180
				CHANNELS 3 Zrotation Yrotation Xrotation
				JOINT RightToe
				{
					OFFSET -2.537174 -4.814398 12.334795
					CHANNELS 3 Zrotation Yrotation Xrotation
					End Site
					{
						OFFSET 0.000000 0.000000 0.000000
					}
				}
			}
		}
	}
	JOINT Spine
	{
		OFFSET -0.253288 10.896323 -2.669631
		CHANNELS 3 Zrotation Yrotation Xrotation
		JOINT Spine1
		{
			OFFSET 0.548704 13.518043 0.109247
			CHANNELS 3 Zrotation Yrotation Xrotation
			JOINT Spine2
			{
				OFFSET 0.145701 5.292222 2.542457
				CHANNELS 3 Zrotation Yrotation Xrotation
				JOINT Neck
				{
					OFFSET -0.277840 21.387037 -4.285703
					CHANNELS 3 Zrotation Yrotation Xrotation
					JOINT Head
					{
						OFFSET 0.515184 6.496960 5.134897
						CHANNELS 3 Zrotation Yrotation Xrotation
						End Site
						{
							OFFSET 0.000000 0.000000 0.000000
						}
					}
				}
				JOINT LeftShoulder
				{
					OFFSET 7.884473 12.174932 -3.408961
					CHANNELS 3 Zrotation Yrotation Xrotation
					JOINT LeftArm
					{
						OFFSET 9.097692 3.046888 -0.886815
						CHANNELS 3 Zrotation Yrotation Xrotation
						JOINT LeftForeArm
						{
							OFFSET 25.961220 -1.277207 -2.745643
							CHANNELS 3 Zrotation Yrotation Xrotation
							JOINT LeftHand
							{
								OFFSET 24.923361 0.898606 -0.117091
								CHANNELS 3 Zrotation Yrotation Xrotation
								End Site
								{
									OFFSET 0.000000 0.000000 0.000000
								}
							}
						}
					}
				}
				JOINT RightShoulder
				{
					OFFSET -8.175920 11.883285 -3.861528
					CHANNELS 3 Zrotation Yrotation Xrotation
					JOINT RightArm
					{
						OFFSET -9.601238 3.255117 -0.914307
						CHANNELS 3 Zrotation Yrotation Xrotation
						JOINT RightForeArm
						{
							OFFSET -25.374195 -1.332924 -2.140099
							CHANNELS 3 Zrotation Yrotation Xrotation
							JOINT RightHand
							{
								OFFSET -25.529810 0.777228 -0.555919
								CHANNELS 3 Zrotation Yrotation Xrotation
								End Site
								{
									OFFSET 0.000000 0.000000 0.000000
								}
							}
						}
					}
				}
			}
		}
	}
}
MOTION
Frames: 13
Frame Time: 0.033333
-77.760117 21.499493 93.983482 -140.151846 7.555996 77.562758 2.185416 4.294566 -9.171492 -1.984348 20.810398 27.809360 10.923985 5.036133 -18.453044 nan nan nan 2.640627 -13.204224 14.984418 -1.983029 -12.608916 57.462446 4.700172 -1.405396 2.959644 nan nan nan -11.427942 8.666987 1.443807 1.366458 -8.230670 6.851819 -1.749101 0.302607 -8.040536 7.834308 -8.423672 11.362127 8.603832 -8.267609 21.822519 -19.415595 -26.543419 3.724063 -68.668000 -28.328321 23.389486 -3.235292 -51.662036 20.823121 8.319658 -25.966779 -28.034685 9.982188 19.978212 -1.951977 61.142761 27.404746 10.460943 -116.663523 51.324290 -86.062340 8.441416 17.483874 -17.721421 
-77.767860 20.939663 93.838913 -143.326499 6.785199 77.330756 1.832560 4.869159 -9.292154 -1.587586 22.802646 27.831071 10.824689 5.175491 -18.337676 nan nan nan 2.196833 -12.329403 15.752111 -2.633940 -11.407643 56.644860 3.603627 -2.951122 1.775725 nan nan nan -10.793685 8.216365 1.673089 1.459977 -8.139714 6.770514 -1.707098 0.411248 -8.295782 6.815077 -8.053218 10.802746 7.625559 -7.015930 22.749139 -19.414492 -26.572219 3.863932 -68.368949 -28.838939 22.427135 -0.550238 -51.396761 18.324767 8.062732 -25.941453 -27.478849 10.444730 21.082466 -1.701903 62.343107 28.669207 12.468572 -117.994935 51.945784 -87.939087 8.062709 17.889548 -19.376786 
-77.757156 20.345507 93.724426 -146.587457 6.168384 77.274846 1.619482 5.460289 -9.635145 -1.107227 24.755059 27.799531 10.582316 5.475754 -18.115607 nan nan nan 1.799684 -11.493214 16.070121 -3.388899 -10.457882 56.108880 2.316363 -4.552235 0.234565 nan nan nan -10.149336 7.716007 1.883792 1.681571 -8.117861 6.492672 -1.502991 0.558787 -8.458189 5.721425 -7.504470 10.331961 6.778949 -5.842105 23.586483 -19.481328 -26.802924 4.121393 -67.800682 -29.160236 21.188897 2.236237 -51.204754 15.455791 7.963629 -25.957177 -26.791163 10.972914 22.220991 -1.576350 63.288881 29.485544 14.321049 -119.057953 52.922554 -89.821309 7.448703 18.273768 -21.216194 
-77.747002 19.714407 93.621376 -149.907119 5.594201 77.223037 1.407724 6.118779 -9.987448 -0.696857 26.394799 27.668926 10.175410 6.072666 -17.824262 nan nan nan 1.167853 -10.833940 16.123593 -4.292312 -9.717927 55.887529 1.046383 -6.174309 -1.423380 nan nan nan -9.369669 7.255303 2.466209 1.878511 -8.036193 5.648021 -1.277732 0.662690 -8.252837 4.666814 -6.801592 9.535527 6.078231 -4.991088 24.864661 -19.352858 -27.015397 4.072821 -67.097657 -29.330656 20.013714 4.556342 -50.975339 12.785062 8.242705 -26.009078 -26.360000 11.494589 23.146758 -1.706499 64.223199 30.029213 16.141115 -119.923962 54.303730 -91.658957 6.364809 18.573364 -22.417437 
-77.807198 19.051310 93.531166 -153.443563 5.174721 76.928826 1.392599 7.053041 -10.029182 -0.357391 27.777389 27.481244 9.678829 6.695264 -17.520824 nan nan nan 0.346270 -10.255978 16.255067 -5.249883 -9.005841 55.760183 0.124618 -7.468161 -2.734839 nan nan nan -8.070953 6.737404 3.505291 1.916830 -7.758452 4.607653 -1.166611 0.848706 -7.878204 3.516423 -6.346284 8.662526 5.485132 -3.989933 25.995262 -18.844157 -27.204886 3.653691 -66.526527 -29.409697 18.895232 6.798586 -50.610856 10.384480 8.770256 -26.093419 -25.902833 11.621328 24.102034 -1.816762 65.144235 30.441272 17.664526 -120.851343 55.758659 -93.654629 5.196029 19.030734 -23.493124 
-77.846985 18.375288 93.482727 -157.075392 4.969745 76.722537 1.719517 8.017468 -10.240304 0.052719 29.219250 27.532353 9.170948 7.196823 -17.184370 nan nan nan -0.280063 -9.575895 16.124712 -6.079228 -8.533666 55.636139 -0.625694 -8.627855 -3.587712 nan nan nan -6.757832 6.175401 4.243655 2.082931 -7.490159 3.977332 -1.060555 1.217313 -7.466008 2.527052 -5.984897 7.786876 4.868744 -3.132100 26.697493 -18.198563 -27.431377 3.255401 -65.886120 -29.697708 17.863034 9.172848 -50.031130 7.854366 9.289583 -26.283834 -25.434118 11.640245 24.953419 -1.938867 65.961629 30.796705 19.140349 -121.762595 57.029495 -95.394861 4.717058 19.776293 -24.495349 
-77.838730 17.665312 93.488388 -160.712578 4.729161 76.826519 2.074911 8.759804 -10.847346 0.509283 30.869761 27.757130 8.707228 7.677429 -16.728831 nan nan nan -0.932160 -8.866519 15.402034 -6.810095 -8.310652 55.660332 -1.198295 -9.726454 -4.079166 nan nan nan -5.758973 5.801908 4.501375 2.379015 -7.236652 3.674390 -0.929040 1.495630 -7.091225 1.787657 -5.474003 7.049348 4.226373 -2.641902 27.272674 -17.755256 -27.503905 2.964111 -64.877197 -30.115998 16.968097 11.353746 -49.360803 5.428373 9.565014 -26.476351 -25.140056 12.055879 25.551653 -1.914285 66.505523 31.132774 20.648319 -122.618089 58.250681 -96.718164 5.527346 20.491052 -25.318081 
-77.845329 16.955643 93.537910 -164.257578 4.576233 76.865255 2.581391 9.497098 -11.424096 1.075356 32.466884 28.221347 8.148474 8.067676 -16.253874 nan nan nan -1.609221 -8.332149 14.730040 -7.339088 -8.196003 55.463064 -1.625969 -10.478204 -4.219600 nan nan nan -4.772014 5.525768 5.103559 2.711426 -6.986248 3.103098 -0.773801 1.689986 -6.667287 1.239689 -4.820053 6.330174 3.549719 -2.325979 27.935297 -17.227843 -27.369970 2.712498 -64.017846 -30.596948 15.988084 13.369419 -48.655428 3.349671 9.998112 -26.773242 -25.349905 12.546237 25.980297 -1.567871 66.949378 31.475526 21.999684 -123.766604 59.251209 -97.869002 4.983655 21.204145 -25.879053 
-77.844543 16.275059 93.610275 -167.681571 4.573633 76.656255 3.399757 10.466070 -11.849597 1.846896 33.752055 29.180688 7.452409 8.316532 -15.814440 nan nan nan -2.178818 -8.088844 14.457291 -7.629435 -7.889393 54.789019 -1.929203 -10.688700 -3.902330 nan nan nan -3.887081 5.300033 5.973657 3.092347 -6.869959 2.758572 -0.493118 1.890975 -6.284766 0.841245 -4.204174 5.636696 2.929600 -1.890461 28.248945 -16.408570 -27.326579 2.517815 -63.242830 -31.076999 14.591036 15.300684 -48.151768 1.641892 10.366330 -27.306530 -25.869620 12.547950 26.497476 -1.225616 67.469211 31.752347 23.005514 -125.166201 60.033325 -98.724203 4.492720 21.998384 -26.217606 
-77.855232 15.593110 93.691673 -171.082606 4.572558 76.296760 4.308943 11.528633 -12.226893 2.745343 34.664657 30.524580 6.729310 8.483980 -15.304160 nan nan nan -2.885536 -8.094245 14.379926 -7.863760 -7.538518 53.811380 -1.882915 -10.115327 -3.154110 nan nan nan -3.030030 5.146228 6.890639 3.395886 -6.815611 2.745887 -0.156393 2.176189 -5.938283 0.301064 -3.709764 5.274157 2.479517 -1.427499 27.934212 -15.691269 -27.517742 2.445593 -62.002015 -31.343308 12.806724 16.959361 -48.114990 0.013181 11.023527 -27.762942 -25.780718 12.256013 27.026040 -0.878934 67.741317 31.998772 23.278985 -127.135504 61.008260 -100.289180 3.991555 22.624302 -25.878282 
-77.877510 14.910293 93.757698 -174.404364 4.581275 75.991396 5.296569 12.501349 -12.809558 3.665699 35.396408 32.306706 5.902322 8.585421 -14.647219 nan nan nan -3.754971 -8.295362 14.284388 -7.985453 -7.447128 52.601772 -1.648215 -8.928600 -2.123423 nan nan nan -2.003472 5.080235 7.572969 3.594539 -6.701532 3.044689 -0.001018 2.599947 -5.649145 -0.460835 -3.386238 5.072135 2.204604 -1.179562 27.423210 -15.213367 -28.113750 2.532083 -60.282593 -31.373532 11.008825 18.655585 -48.309284 -2.139380 12.048589 -28.025741 -25.177379 11.854796 27.324404 -0.856019 67.765472 31.907357 23.035872 -129.710300 62.190745 -103.117252 3.305991 23.036767 -25.264163 
-77.904449 14.238104 93.814613 -177.660283 4.594721 75.915201 6.415922 13.169545 -13.697111 4.484796 36.113396 34.400220 4.986864 8.894846 -13.861923 nan nan nan -4.576563 -8.384695 13.956388 -7.670095 -7.550461 51.255851 -1.272302 -7.830939 -0.944037 nan nan nan -1.061220 5.117913 8.076788 3.828138 -6.591027 3.523495 0.032366 2.826995 -5.755632 -0.972330 -3.017573 4.995017 1.901513 -0.816236 27.164335 -14.627578 -28.493099 2.777051 -58.971163 -31.262317 9.476356 21.025179 -48.603650 -4.012979 13.558381 -28.129935 -25.504678 11.609104 27.765713 -0.731500 68.233357 31.581208 23.366048 -131.649789 62.690475 -104.330043 2.593329 23.603690 -25.674888 
-77.946365 13.539650 93.862740 179.108208 4.533056 75.862934 7.603233 13.781727 -14.723763 5.511062 36.846211 36.994512 3.793957 9.143747 -13.127879 nan nan nan -5.433362 -8.462103 13.477101 -7.298372 -7.866106 50.009395 -0.588724 -7.583995 -0.284499 nan nan nan -0.261072 5.110546 8.667192 3.950845 -6.450038 4.126875 0.213873 2.572072 -6.092505 -1.637932 -2.608690 5.237002 1.724649 0.197079 26.606777 -14.093480 -28.087554 2.752839 -57.781753 -30.921838 7.903168 23.229848 -49.212065 -5.607506 14.638848 -28.283026 -25.883092 11.510865 28.224560 -0.194677 68.348852 31.722909 23.701079 -133.258493 63.561473 -105.894306 1.261131 24.083492 -26.438832 
